<svg width="25" height="24" viewBox="0 0 25 24" fill="none" xmlns="http://www.w3.org/2000/svg">
<g opacity="0.7">
<path d="M22.153 10H14.153V2C14.153 1.46957 13.9423 0.960859 13.5672 0.585786C13.1922 0.210714 12.6834 0 12.153 0C11.6226 0 11.1139 0.210714 10.7388 0.585786C10.3637 0.960859 10.153 1.46957 10.153 2V10H2.15302C1.62258 10 1.11387 10.2107 0.738802 10.5858C0.363729 10.9609 0.153015 11.4696 0.153015 12C0.153015 12.5304 0.363729 13.0391 0.738802 13.4142C1.11387 13.7893 1.62258 14 2.15302 14H10.153V22C10.153 22.5304 10.3637 23.0391 10.7388 23.4142C11.1139 23.7893 11.6226 24 12.153 24C12.6834 24 13.1922 23.7893 13.5672 23.4142C13.9423 23.0391 14.153 22.5304 14.153 22V14H22.153C22.6834 14 23.1922 13.7893 23.5672 13.4142C23.9423 13.0391 24.153 12.5304 24.153 12C24.153 11.4696 23.9423 10.9609 23.5672 10.5858C23.1922 10.2107 22.6834 10 22.153 10Z" fill="white"/>
</g>
</svg>
