<svg width="214" height="110" viewBox="0 0 214 110" fill="none" xmlns="http://www.w3.org/2000/svg">
<g filter="url(#filter0_d_1_51)">
<path d="M31.153 23H182.153C183.479 23 184.751 23.5268 185.689 24.4645C186.626 25.4021 187.153 26.6739 187.153 28V76C187.153 77.3261 186.626 78.5979 185.689 79.5355C184.751 80.4732 183.479 81 182.153 81H31.153C29.8269 81 28.5552 80.4732 27.6175 79.5355C26.6798 78.5979 26.153 77.3261 26.153 76V28C26.153 26.6739 26.6798 25.4021 27.6175 24.4645C28.5552 23.5268 29.8269 23 31.153 23Z" fill="#DAE2B6"/>
</g>
<defs>
<filter id="filter0_d_1_51" x="0.153015" y="0" width="213" height="110" filterUnits="userSpaceOnUse" color-interpolation-filters="sRGB">
<feFlood flood-opacity="0" result="BackgroundImageFix"/>
<feColorMatrix in="SourceAlpha" type="matrix" values="0 0 0 0 0 0 0 0 0 0 0 0 0 0 0 0 0 0 127 0" result="hardAlpha"/>
<feOffset dy="3"/>
<feGaussianBlur stdDeviation="13"/>
<feColorMatrix type="matrix" values="0 0 0 0 0 0 0 0 0 0 0 0 0 0 0 0 0 0 0.11 0"/>
<feBlend mode="normal" in2="BackgroundImageFix" result="effect1_dropShadow_1_51"/>
<feBlend mode="normal" in="SourceGraphic" in2="effect1_dropShadow_1_51" result="shape"/>
</filter>
</defs>
</svg>
