<svg width="200" height="188" viewBox="0 0 200 188" fill="none" xmlns="http://www.w3.org/2000/svg">
<g filter="url(#filter0_d_1_13)">
<path d="M31 23.995H169C170.326 23.995 171.598 24.5217 172.536 25.4594C173.473 26.3971 174 27.6689 174 28.995V153.995C174 155.321 173.473 156.593 172.536 157.531C171.598 158.468 170.326 158.995 169 158.995H31C29.6739 158.995 28.4021 158.468 27.4645 157.531C26.5268 156.593 26 155.321 26 153.995V28.995C26 27.6689 26.5268 26.3971 27.4645 25.4594C28.4021 24.5217 29.6739 23.995 31 23.995Z" fill="#DAE2B6"/>
</g>
<defs>
<filter id="filter0_d_1_13" x="0" y="0.994965" width="200" height="187" filterUnits="userSpaceOnUse" color-interpolation-filters="sRGB">
<feFlood flood-opacity="0" result="BackgroundImageFix"/>
<feColorMatrix in="SourceAlpha" type="matrix" values="0 0 0 0 0 0 0 0 0 0 0 0 0 0 0 0 0 0 127 0" result="hardAlpha"/>
<feOffset dy="3"/>
<feGaussianBlur stdDeviation="13"/>
<feColorMatrix type="matrix" values="0 0 0 0 0 0 0 0 0 0 0 0 0 0 0 0 0 0 0.11 0"/>
<feBlend mode="normal" in2="BackgroundImageFix" result="effect1_dropShadow_1_13"/>
<feBlend mode="normal" in="SourceGraphic" in2="effect1_dropShadow_1_13" result="shape"/>
</filter>
</defs>
</svg>
