<svg width="738" height="373" viewBox="0 0 738 373" fill="none" xmlns="http://www.w3.org/2000/svg">
<g filter="url(#filter0_d_1_169)">
<path d="M29.739 23.496H707.528C708.003 23.4951 708.474 23.5877 708.913 23.7687C709.352 23.9497 709.752 24.2154 710.088 24.5507C710.425 24.886 710.692 25.2844 710.875 25.723C711.058 26.1616 711.152 26.6319 711.153 27.107V340.389C711.152 340.864 711.058 341.334 710.875 341.773C710.692 342.212 710.425 342.61 710.088 342.945C709.752 343.281 709.352 343.546 708.913 343.727C708.474 343.908 708.003 344.001 707.528 344H29.739C29.2639 344.001 28.7932 343.908 28.3539 343.727C27.9146 343.546 27.5153 343.281 27.1786 342.945C26.842 342.61 26.5748 342.212 26.3921 341.773C26.2094 341.334 26.1149 340.864 26.114 340.389V27.107C26.1149 26.6319 26.2094 26.1616 26.3921 25.723C26.5748 25.2844 26.842 24.886 27.1786 24.5507C27.5153 24.2154 27.9146 23.9497 28.3539 23.7687C28.7932 23.5877 29.2639 23.4951 29.739 23.496Z" fill="#F4EAD5"/>
</g>
<defs>
<filter id="filter0_d_1_169" x="0.114014" y="0.495972" width="737.039" height="372.504" filterUnits="userSpaceOnUse" color-interpolation-filters="sRGB">
<feFlood flood-opacity="0" result="BackgroundImageFix"/>
<feColorMatrix in="SourceAlpha" type="matrix" values="0 0 0 0 0 0 0 0 0 0 0 0 0 0 0 0 0 0 127 0" result="hardAlpha"/>
<feOffset dy="3"/>
<feGaussianBlur stdDeviation="13"/>
<feColorMatrix type="matrix" values="0 0 0 0 0 0 0 0 0 0 0 0 0 0 0 0 0 0 0.09 0"/>
<feBlend mode="normal" in2="BackgroundImageFix" result="effect1_dropShadow_1_169"/>
<feBlend mode="normal" in="SourceGraphic" in2="effect1_dropShadow_1_169" result="shape"/>
</filter>
</defs>
</svg>
