<svg width="33" height="33" viewBox="0 0 33 33" fill="none" xmlns="http://www.w3.org/2000/svg">
<path d="M12.729 28.972C12.7985 29.8381 13.2068 30.6418 13.8653 31.2087C14.5237 31.7756 15.3792 32.0599 16.246 32C17.1128 32.0599 17.9682 31.7756 18.6267 31.2087C19.2851 30.6418 19.6934 29.8381 19.763 28.972H12.729ZM28.405 22.596V13.741C28.405 8.79601 24.428 4.65701 19.056 3.56101V2.46101C19.0002 1.76944 18.6738 1.12782 18.1476 0.675601C17.6215 0.223384 16.938 -0.002874 16.246 0.0460073C15.5539 -0.00173504 14.871 0.225566 14.3456 0.678516C13.8201 1.13147 13.4947 1.77347 13.44 2.46501V3.56501C8.06697 4.66501 4.09097 8.79901 4.09097 13.745V22.601L0.339966 25.822V27.435H32.152V25.822L28.405 22.596ZM23.315 16.796H18.015V21.361H14.479V16.799H9.17897V13.741H14.479V9.17601H18.014V13.741H23.314L23.315 16.796Z" fill="#0A656A"/>
</svg>
