<svg width="46" height="48" viewBox="0 0 46 48" fill="none" xmlns="http://www.w3.org/2000/svg">
<path d="M40 5.553H29.809C29.2486 4.19087 28.296 3.02599 27.0723 2.20623C25.8486 1.38647 24.4089 0.948807 22.936 0.948807C21.4631 0.948807 20.0234 1.38647 18.7997 2.20623C17.576 3.02599 16.6234 4.19087 16.063 5.553H5.875C4.6192 5.522 3.40206 5.98866 2.48888 6.85126C1.5757 7.71387 1.04052 8.90247 1 10.158V42.395C1.04052 43.6505 1.5757 44.8391 2.48888 45.7017C3.40206 46.5643 4.6192 47.031 5.875 47H40C41.2558 47.031 42.4729 46.5643 43.3861 45.7017C44.2993 44.8391 44.8345 43.6505 44.875 42.395V10.158C44.8345 8.90247 44.2993 7.71387 43.3861 6.85126C42.4729 5.98866 41.2558 5.522 40 5.553ZM22.939 5.553C23.5664 5.53762 24.1745 5.77067 24.6309 6.20142C25.0873 6.63218 25.3551 7.22577 25.376 7.853C25.3426 8.47688 25.0712 9.06418 24.6177 9.49397C24.1643 9.92377 23.5633 10.1633 22.9385 10.1633C22.3137 10.1633 21.7127 9.92377 21.2593 9.49397C20.8058 9.06418 20.5344 8.47688 20.501 7.853C20.5219 7.22612 20.7894 6.63284 21.2454 6.20214C21.7014 5.77144 22.3089 5.53816 22.936 5.553H22.939ZM22.939 14.763C23.8728 14.736 24.8028 14.8932 25.6758 15.2259C26.5488 15.5585 27.3477 16.0599 28.0268 16.7015C28.7059 17.343 29.2519 18.1122 29.6335 18.9649C30.0151 19.8176 30.225 20.7371 30.251 21.671C30.225 22.6049 30.0151 23.5244 29.6335 24.3771C29.2519 25.2298 28.7059 25.999 28.0268 26.6405C27.3477 27.2821 26.5488 27.7835 25.6758 28.1161C24.8028 28.4488 23.8728 28.606 22.939 28.579C22.0052 28.606 21.0752 28.4488 20.2022 28.1161C19.3292 27.7835 18.5303 27.2821 17.8512 26.6405C17.1721 25.999 16.6261 25.2298 16.2445 24.3771C15.8629 23.5244 15.653 22.6049 15.627 21.671C15.6532 20.7375 15.863 19.8183 16.2445 18.9659C16.626 18.1135 17.1717 17.3446 17.8505 16.7032C18.5292 16.0618 19.3277 15.5604 20.2003 15.2276C21.0729 14.8949 22.0025 14.7374 22.936 14.764L22.939 14.763ZM37.559 42.395H8.312V39.171C8.312 34.566 18.061 32.033 22.936 32.033C27.811 32.033 37.56 34.566 37.56 39.171L37.559 42.395Z" fill="#0A656A" stroke="#95989A"/>
</svg>
