<svg width="30" height="31" viewBox="0 0 30 31" fill="none" xmlns="http://www.w3.org/2000/svg">
<path d="M25.428 11.097V4.76099H19.267L14.919 0.286987L10.572 4.76099H4.41001V11.097L0.0620117 15.574L4.41001 20.048V26.387H10.572L14.92 30.861L19.268 26.387H25.429V20.048L29.772 15.574L25.428 11.097ZM14.919 23.684C12.7986 23.6529 10.7773 22.7812 9.29932 21.2605C7.82134 19.7397 7.00763 17.6944 7.03701 15.574C7.00763 13.4536 7.82134 11.4082 9.29932 9.88749C10.7773 8.36676 12.7986 7.49506 14.919 7.46399C17.0394 7.49506 19.0607 8.36676 20.5387 9.88749C22.0167 11.4082 22.8304 13.4536 22.801 15.574C22.8304 17.6944 22.0167 19.7397 20.5387 21.2605C19.0607 22.7812 17.0394 23.6529 14.919 23.684ZM14.919 10.167C13.843 10.1359 12.7822 10.4266 11.8724 11.0019C10.9626 11.5771 10.2451 12.4108 9.81172 13.3961C9.37836 14.3815 9.24885 15.4737 9.43977 16.5331C9.63068 17.5924 10.1333 18.5708 10.8834 19.3428C11.6335 20.1149 12.5969 20.6456 13.6503 20.867C14.7037 21.0885 15.7992 20.9906 16.7967 20.5859C17.7941 20.1812 18.6481 19.488 19.2494 18.5952C19.8507 17.7024 20.172 16.6504 20.172 15.574C20.192 14.1606 19.6499 12.7971 18.6648 11.7833C17.6798 10.7696 16.3324 10.1885 14.919 10.168V10.167Z" fill="#0A656A"/>
</svg>
