<svg width="48" height="52" viewBox="0 0 48 52" fill="none" xmlns="http://www.w3.org/2000/svg">
<path d="M47.428 5.148C47.4823 3.84239 47.018 2.5683 46.1363 1.60382C45.2546 0.639333 44.0272 0.0627811 42.722 0H4.88298C3.57525 0.0615443 2.34469 0.636899 1.45893 1.60094C0.573165 2.56498 0.103826 3.83974 0.152981 5.148V36.038C0.103826 37.3463 0.573165 38.621 1.45893 39.5851C2.34469 40.5491 3.57525 41.1245 4.88298 41.186H37.992L47.452 51.486L47.428 5.148ZM37.992 30.89H9.61298V25.742H37.992V30.89ZM37.992 23.167H9.61298V18.019H37.992V23.167ZM37.992 15.444H9.61298V10.3H37.992V15.444Z" fill="#0A656A"/>
</svg>
