<svg width="52" height="46" viewBox="0 0 52 46" fill="none" xmlns="http://www.w3.org/2000/svg">
<path d="M35.419 19.607C39.33 19.607 42.463 15.27 42.463 9.89701C42.463 4.52401 39.33 0.187012 35.419 0.187012C31.508 0.187012 28.351 4.52401 28.351 9.89701C28.351 15.27 31.508 19.607 35.419 19.607ZM16.571 19.607C20.482 19.607 23.615 15.27 23.615 9.89701C23.615 4.52401 20.479 0.187012 16.571 0.187012C12.663 0.187012 9.50298 4.52401 9.50298 9.89701C9.50298 15.27 12.66 19.607 16.571 19.607ZM16.571 26.08C11.079 26.08 0.0789795 29.867 0.0789795 37.408V45.5H33.063V37.408C33.063 29.867 22.06 26.08 16.571 26.08ZM35.419 26.08C34.6549 26.0905 33.8919 26.1446 33.134 26.242C34.6277 27.6889 35.8102 29.4255 36.6089 31.3456C37.4077 33.2657 37.8058 35.3286 37.779 37.408V45.5H51.91V37.408C51.91 29.867 40.908 26.08 35.419 26.08Z" fill="#0A656A"/>
</svg>
