<svg width="49" height="45" viewBox="0 0 49 45" fill="none" xmlns="http://www.w3.org/2000/svg">
<path d="M44.072 0.380005H4.652C3.42424 0.456607 2.27608 1.01384 1.45626 1.93099C0.636436 2.84815 0.210961 4.05137 0.272002 5.28V39.597C0.210961 40.8256 0.636436 42.0289 1.45626 42.946C2.27608 43.8632 3.42424 44.4204 4.652 44.497H44.072C45.2998 44.4204 46.4479 43.8632 47.2677 42.946C48.0876 42.0289 48.513 40.8256 48.452 39.597V5.28C48.513 4.05137 48.0876 2.84815 47.2677 1.93099C46.4479 1.01384 45.2998 0.456607 44.072 0.380005ZM44.072 32.244H4.652V5.28H44.072V32.244Z" fill="#0A656A"/>
</svg>
